/* XPM */
static char *dn_show_time[] = {
/* columns rows colors chars-per-pixel */
"32 32 49 1 ",
"  c #01BF01BF01BF",
". c #042904290429",
"X c #0AED0AED0AED",
"o c #0EB40EB40EB4",
"O c #118711871187",
"+ c #151615161516",
"@ c #197E197E197E",
"# c #1FA31FA31FA3",
"$ c #264626462646",
"% c #2C8B2C8B2C8B",
"& c #315A315A315A",
"* c #353E353E353E",
"= c #3A283A283A28",
"- c #486F486F486F",
"; c #4DE44DE44DE4",
": c #533953395339",
"> c #544954495449",
", c #5B2F5B2F5B2F",
"< c #5C8C5C8C5C8C",
"1 c #63D163D163D1",
"2 c #664066406640",
"3 c #6B946B946B94",
"4 c #6C5D6C5D6C5D",
"5 c #79D779D779D7",
"6 c #7F727F727F72",
"7 c #82D982D982D9",
"8 c #8C388C388C38",
"9 c #8E938E938E93",
"0 c #9FAD9FAD9FAD",
"q c #A181A181A181",
"w c #A7C2A7C2A7C2",
"e c #A989A989A989",
"r c #B2D7B2D7B2D7",
"t c #B6E1B6E1B6E1",
"y c #B8D2B8D2B8D2",
"u c #C3A9C3A9C3A9",
"i c #C593C593C593",
"p c #CBB3CBB3CBB3",
"a c #CCAECCAECCAE",
"s c #D2C3D2C3D2C3",
"d c #D6E5D6E5D6E5",
"f c #E13CE13CE13C",
"g c #E49BE49BE49B",
"h c #EB29EB29EB29",
"j c #ECCBECCBECCB",
"k c #F22FF22FF22F",
"l c #F744F744F744",
"z c #F9FAF9FAF9FA",
"x c #FFFEFFFEFFFE",
/* pixels */
"xxxxxxxxxxxxxxxxxxxxxxxxxxxxxxxx",
"xxxxxxxxxxxxhprwwrahzxxxxxxxxxxx",
"xxxxxxxxxkt3&@X  X@&3tkxxxxxxxxx",
"xxxxxxxzt-o          o;yzxxxxxxx",
"xxxxxxh5O  o*29qq92*o  O5hxxxxxx",
"xxxxxg,. o:rjxxllxxjr:X .,gxxxxx",
"xxxxh<  $qkxxxf<<dxxxk0$  <jxxxx",
"xxxz5  &uxxxxxeXXexxxxxu&  6zxxx",
"xxxtO $uxxxxxx0..0xxxxxxu$ Otxxx",
"xxk; X0xxxxxxxq..qxxxxxxx0X ;kxx",
"xxto :kxxxxxxxqXX0xxxxxxxj> otxx",
"xz3 orxxxxxxxxq..qxxxxxxxxro 4xx",
"xh& &hxxxxxxxxq..qxxxxxxxxh& &hx",
"xp@ 2xxxxxxxxxq.Xqxxxxxxxxx1 @px",
"xrX 9xxxxxxxxx6  5zxxxxxxxx9 orx",
"xw. qxxxxxxxxg*  +7gxxxxxxx0 .ex",
"xw. 0xxxxxxxxf*   .=wjxxxxx0  ex",
"xrX 9xxxxxxxxxe*%#  X:ixxxx9 Xtx",
"xp@ 2xxxxxxxxxxfga2O  %dxxx2 @px",
"xj& &hxxxxxxxxxxxxlt-.$sxxh& &jx",
"xx3 XrxxxxxxxxxxxxxxjtizxxeX 4xx",
"xxto :kxxxxxxxxxxxxxxxxxxk> otxx",
"xxk; X0xxxxxxxxxxxxxxxxxx0X ;kxx",
"xxxtO $uxxxxxxxxxxxxxxxxu$ +yxxx",
"xxxz6. &uxxxxxxxxxxxxxxu% .6zxxx",
"xxxxh<  $qkxxxxxxxxxxk0$  <jxxxx",
"xxxxxg,  X:rhxxxxxxgr:X  <gxxxxx",
"xxxxxxh5O  X&29qq91&X  O5jxxxxxx",
"xxxxxxxzt;o          o;tzxxxxxxx",
"xxxxxxxxxkt3&@X. o@&3tkxxxxxxxxx",
"xxxxxxxxxxxzharwwrphxxxxxxxxxxxx",
"xxxxxxxxxxxxxxxxxxxxxxxxxxxxxxxx"
};
