/* XPM */
static char *dn_use_internet[] = {
/* columns rows colors chars-per-pixel */
"32 32 207 2 ",
"   c #1C0D05",
".  c #2C1609",
"X  c #281407",
"o  c #331A09",
"O  c #3A1D0A",
"+  c #281A12",
"@  c #311D13",
"#  c #3E210C",
"$  c #2F231D",
"%  c #3C2212",
"&  c #352118",
"*  c #44230C",
"=  c #4B260D",
"-  c #4E280C",
";  c #562C0E",
":  c #5E300F",
">  c #452612",
",  c #4C2913",
"<  c #452A1B",
"1  c #482B16",
"2  c #542E17",
"3  c #5B3318",
"4  c #62330F",
"5  c #643310",
"6  c #6C3713",
"7  c #6A3B15",
"8  c #733B13",
"9  c #783E15",
"0  c #733E1B",
"q  c #402F26",
"w  c #47342B",
"e  c #573724",
"r  c #523E32",
"t  c #6A3B22",
"y  c #5D411A",
"u  c #67411D",
"i  c #7D4113",
"p  c #7B411A",
"a  c #734717",
"s  c #72521C",
"d  c #574239",
"f  c #684229",
"g  c #734425",
"h  c #7B4322",
"j  c #734B20",
"k  c #784826",
"l  c #72513C",
"z  c #684535",
"x  c #554B46",
"c  c #6B564A",
"v  c #7F5E49",
"b  c #775847",
"n  c #6D5349",
"m  c #76645C",
"M  c #7E675E",
"N  c #834314",
"B  c #884619",
"V  c #934B17",
"C  c #944C1B",
"Z  c #984A19",
"A  c #9D531B",
"S  c #A4521A",
"D  c #AC561B",
"F  c #A95B1C",
"G  c #B25E1D",
"H  c #91601F",
"J  c #A9631F",
"K  c #B9651E",
"L  c #8D4922",
"P  c #914B20",
"I  c #895828",
"U  c #865626",
"Y  c #995227",
"T  c #9B5836",
"R  c #A75822",
"E  c #92622C",
"W  c #996827",
"Q  c #A16B23",
"!  c #AB6822",
"~  c #B86323",
"^  c #BB772B",
"/  c #A26E32",
"(  c #A67736",
")  c #B16F32",
"_  c #C26F20",
"`  c #C97624",
"'  c #CD7D25",
"]  c #CA752B",
"[  c #C87425",
"{  c #C8763A",
"}  c #8A5941",
"|  c #85634D",
" . c #886C5C",
".. c #AD7251",
"X. c #846E60",
"o. c #8F7B6E",
"O. c #8C7B75",
"+. c #97796D",
"@. c #B17C62",
"#. c #AD8035",
"$. c #BA953C",
"%. c #B58C34",
"&. c #D78B2C",
"*. c #D48828",
"=. c #CC922F",
"-. c #DA972D",
";. c #C29D3E",
":. c #D48E3B",
">. c #E19D2E",
",. c #E29D36",
"<. c #C9A038",
"1. c #E8A62E",
"2. c #E3AB31",
"3. c #EAAD31",
"4. c #E4B436",
"5. c #EBB131",
"6. c #EEBA31",
"7. c #E9B839",
"8. c #F1BF38",
"9. c #ECC53C",
"0. c #ECCB3F",
"q. c #F1C135",
"w. c #F5D03C",
"e. c #978479",
"r. c #A78D7E",
"t. c #C68F40",
"y. c #CE9353",
"u. c #E29F51",
"i. c #C9A543",
"p. c #DAB945",
"a. c #DDB153",
"s. c #E3BA48",
"d. c #EBAF48",
"f. c #C89779",
"g. c #DA9F73",
"h. c #C98E6A",
"j. c #E9B270",
"k. c #EECF43",
"l. c #E7C847",
"z. c #F2CD46",
"x. c #F1D245",
"c. c #F5DC4C",
"v. c #F5D348",
"b. c #F5DD51",
"n. c #FAEA5D",
"m. c #F8E456",
"M. c #FAEA61",
"N. c #F9EA6A",
"B. c #FCF26B",
"V. c #FAE972",
"C. c #FEF87A",
"Z. c #FDF575",
"A. c #8E8581",
"S. c #A89488",
"D. c #A89B95",
"F. c #B9A59D",
"G. c #BAACA3",
"H. c #B9ACA7",
"J. c #BCB1AB",
"K. c #B5B0AE",
"L. c #C79A84",
"P. c #D6A98A",
"I. c #C6A797",
"U. c #D3B095",
"Y. c #EAB98C",
"T. c #D8B5A5",
"R. c #C4BFBD",
"E. c #CABEB8",
"W. c #CDB4A9",
"Q. c #E4BBA0",
"!. c #EFC483",
"~. c #F4CB9E",
"^. c #FEFA83",
"/. c #FFFC8C",
"(. c #FFFD93",
"). c #CCC2BD",
"_. c #DAC4B4",
"`. c #EAC2A6",
"'. c #E6C7B6",
"]. c #F6D1B0",
"[. c #D4CECB",
"{. c #D3CAC5",
"}. c #DCD2CD",
"|. c #DDD7D4",
" X c #DAD7D6",
".X c #C8C5C3",
"XX c #E3CEC5",
"oX c #EAD3C7",
"OX c #F6D8C6",
"+X c #E4DEDB",
"@X c #E9DAD2",
"#X c #F6DDD1",
"$X c #EDE1DC",
"%X c #E6E0DE",
"&X c #F4E3DA",
"*X c #EBE8E6",
"=X c #EBEAE9",
"-X c #E7E3E2",
";X c #F4EDEA",
":X c #F6E9E4",
">X c #FAF1ED",
",X c #F2F0EF",
"<X c #F4F2F2",
"1X c #FAF6F4",
"2X c #FDFBFB",
"3X c #FAF8F7",
"4X c None",
/* pixels */
"4X4X4X4X4X4X4X4X4X4X4X4XJ.).}.|.@X[.E.G.4X4X4X4X4X4X4X4X4X4X4X4X",
"4X4X4X4X4X4X4X4X4X4XG.{.-X<X2X2X2X3X,X+XR.D.4X4X4X4X4X4X4X4X4X4X",
"4X4X4X4X4X4X4X4XO.I.XX-X;X1X2X2X2X3X,X=X XR.D.4X4X4X4X4X4X4X4X4X",
"4X4X4X4X4X4X4XM D.T.oX$X:X1X3X2X2X3X,X*X[.R.H.e.m 4X4X4X4X4X4X4X",
"4X4X4X4X4X4Xn +.I.T.XX#X&X>X1X3X3X<X=X+X[.K.D.A.m n 4X4X4X4X4X4X",
"4X4X4X4X4Xz } @.f.T.'.oX&X:X>X1X,X=X-X X.XK.F.e.m d 4X4X4X4X4X4X",
"4X4X4X4X4Xg T ..f.U.`.oX&X&X&X=X-X-X@X@X.XH.D.O.x r w 4X4X4X4X4X",
"4X4X4X4Xt L R ..h.P.T.].OX#X&X X+X&X#XoX_.W.r. .w $ & < 4X4X4X4X",
"4X4X4X4Xp Z Y ) h.g.Y.Q.].OX#X}.}.{.)._.`.P.L...q + @ < 4X4X4X4X",
"4X4X4Xh Z Z S ~ { y.j.Y.~.]._.J.H.F.D.S.S.O.c r & X + e 4X4X4X4X",
"4X4X4XL Z Z D ~ ] :.u.j.!.U.S.S.S.r.e.M c d < @ < %   > h 4X4X4X",
"4X4X4XL S S D _ ] ] ,.d.y.v v | v v l f e > O . . 1 . , B 4X4X4X",
"4X4X4Xg R D K _ ' &.,.d.( t g g j u 7 3 , * O o . % 1 0 P 4X4X4X",
"4X4X4X2 A G K ` ' ,.5.9.( 8 p i p p 7 5 ; - * O o . % g P 4X4X4X",
"4X4X4X% p G _ ' >.1.8.z./ N B V V B p 8 4 ; * # o o . 6 Y 4X4X4X",
"4X4X4X% > ! ` *.>.5.z.c.p.R D D D S Z B 8 4 ; * # o O C C 4X4X4X",
"4X4X4X4X# U ' &.2.9.x.m.M.l.] ] ` :.^ A N 8 : - # o 8 G 4X4X4X4X",
"4X4X4X4X# > E -.4.0.c.n.B.Z.V.V.V.Z.N.i.V i 6 ; * * J R 4X4X4X4X",
"4X4X4X4X> # > E 4.0.b.n.B.C.^.(./.^.Z.a.S N 8 : - : ! 4X4X4X4X4X",
"4X4X4X4X4X> = a 4.k.b.M.B.^./.(.(.^.C.N.^ V 9 4 - 4 I 4X4X4X4X4X",
"4X4X4X4X4X, - H 9.k.m.n.Z.C./.(./.C.V.B.t.C i 4 8 I 4X4X4X4X4X4X",
"4X4X4X4X4X4X2 Q q.k.c.n.V.C.^.(.M.w.q.d.^ Z i 8 J 4X4X4X4X4X4X4X",
"4X4X4X4X4X4X4XE =.9.c.n.n.z.v.c.w.q.3.-.~ V N Q W 4X4X4X4X4X4X4X",
"4X4X4X4X4X4X4X4XI ;.k.m.z.3.5.6.5.3.1.>.^ Q Q s 4X4X4X4X4X4X4X4X",
"4X4X4X4X4X4X4X4X4Xj %.p.l.b.x.5.2.2.4.7.<.( y 4X4X4X4X4X4X4X4X4X",
"4X4X4X4X4X4X4X4X4X4Xj E #.$.i.i.i.;.$.#.E u 4X4X4X4X4X4X4X4X4X4X",
"4X4X4X4X4X4X4X4X4X4X4X4Xu k U I I U j 4X4X4X4X4X4X4X4X4X4X4X4X4X",
"4X4X4X4X4X4X4X4X4X4X4X4X4X4X4X4X4X4X4X4X4X4X4X4X4X4X4X4X4X4X4X4X",
"4X4X4X4X4X4X4X4X4X4X4X4X4X4X4X4X4X4X4X4X4X4X4X4X4X4X4X4X4X4X4X4X",
"4X4X4X4X4X4X4X4X4X4X4X4X4X4X4X4X4X4X4X4X4X4X4X4X4X4X4X4X4X4X4X4X",
"4X4X4X4X4X4X4X4X4X4X4X4X4X4X4X4X4X4X4X4X4X4X4X4X4X4X4X4X4X4X4X4X",
"4X4X4X4X4X4X4X4X4X4X4X4X4X4X4X4X4X4X4X4X4X4X4X4X4X4X4X4X4X4X4X4X"
};
