/* XPM */
static char *coffee_cup_blue_on_white[] = {
/* columns rows colors chars-per-pixel */
"32 32 206 2 ",
"   c #6B6B6B",
".  c #6D6D6D",
"X  c #7E7E7E",
"o  c #7F7F7F",
"O  c #134386",
"+  c #124387",
"@  c #134388",
"#  c #184688",
"$  c #174A8D",
"%  c #174B8E",
"&  c #184B8E",
"*  c #1A5193",
"=  c #1B5193",
"-  c #1B5698",
";  c #1E5899",
":  c #1E589A",
">  c #275085",
",  c #28548E",
"<  c #2B548E",
"1  c #2A5A93",
"2  c #295B97",
"3  c #29659A",
"4  c #3A6B9D",
"5  c #205FA0",
"6  c #2260A0",
"7  c #2561A1",
"8  c #2B67A1",
"9  c #2868A2",
"0  c #2869A2",
"q  c #2969A2",
"w  c #2969A3",
"e  c #2A69A2",
"r  c #2A6AA3",
"t  c #2568A8",
"y  c #2569A9",
"u  c #2668A8",
"i  c #286AA9",
"p  c #3D6DA2",
"a  c #4F6C8D",
"s  c #516A8C",
"d  c #526B8C",
"f  c #526C8E",
"g  c #556D8E",
"h  c #476897",
"j  c #51779E",
"k  c #5C779F",
"l  c #677A95",
"z  c #4175A4",
"x  c #4D75A1",
"c  c #5E78A0",
"v  c #667FA3",
"b  c #5382AB",
"n  c #5783AD",
"m  c #6685A8",
"M  c #7086A6",
"N  c #758AA3",
"B  c #7B93AF",
"V  c #668DB0",
"C  c #7F98B4",
"Z  c #808080",
"A  c #818181",
"S  c #828282",
"D  c #8E8E8E",
"F  c #8F8F8F",
"G  c #969696",
"H  c #979797",
"J  c #8994A4",
"K  c #8495AE",
"L  c #839BAF",
"P  c #809AB1",
"I  c #8698B1",
"U  c #8BA1B3",
"Y  c #8DA5B7",
"T  c #96A3B5",
"R  c #9AABB7",
"E  c #96A9B9",
"W  c #98ABBA",
"Q  c #99AABF",
"!  c #A4A4A4",
"~  c #A5A5A5",
"^  c #ACACAC",
"/  c #ADADAD",
"(  c #A6B2BB",
")  c #B1B1B1",
"_  c #B5B5B5",
"`  c #BCBCBC",
"'  c #91ABC0",
"]  c #9CB3C8",
"[  c #9CB6CF",
"{  c #A7B5C1",
"}  c #A7B4C4",
"|  c #A8B5C0",
" . c #A8B5C1",
".. c #A8B6C1",
"X. c #A8B6C2",
"o. c #AAB6C2",
"O. c #ACB6C1",
"+. c #AAB6C4",
"@. c #AFB8C0",
"#. c #A8BAC7",
"$. c #ACB9C5",
"%. c #AFBBC4",
"&. c #A6B8CC",
"*. c #B0B7C0",
"=. c #B2B8C1",
"-. c #B9C2CA",
";. c #BEC5CA",
":. c #B8C2CD",
">. c #B9C7D5",
",. c #BBCCDA",
"<. c #C1C1C1",
"1. c #C2C2C2",
"2. c #C3C3C3",
"3. c #C1C4C7",
"4. c #C4C4C4",
"5. c #C6C6C6",
"6. c #C7C7C7",
"7. c #C8C7C7",
"8. c #C8C8C7",
"9. c #C9C8C7",
"0. c #C3C7CC",
"q. c #C7C9CC",
"w. c #C9C8C8",
"e. c #C9C9C8",
"r. c #C9C9C9",
"t. c #CAC9C8",
"y. c #CCCCCC",
"u. c #CDCDCD",
"i. c #CECECD",
"p. c #CECECE",
"a. c #CFCFCF",
"s. c #C2CBD2",
"d. c #C9CDD0",
"f. c #C1CFD9",
"g. c #C9D0D4",
"h. c #CFD3D8",
"j. c #D0D0D0",
"k. c #D0D0D1",
"l. c #D1D1D1",
"z. c #D2D2D2",
"x. c #D3D3D3",
"c. c #D4D3D3",
"v. c #D2D5D7",
"b. c #D4D4D4",
"n. c #D5D5D5",
"m. c #D6D6D6",
"M. c #D7D7D7",
"N. c #D3D6D9",
"B. c #D6D8DB",
"V. c #D7DADD",
"C. c #D8D8D8",
"Z. c #D8D9D9",
"A. c #D9D9D9",
"S. c #DADADA",
"D. c #DBDBDB",
"F. c #DADCDD",
"G. c #DCDCDC",
"H. c #DEDDDC",
"J. c #DEDEDE",
"K. c #DFDFDE",
"L. c #DFDFDF",
"P. c #D4DAE0",
"I. c #DEE0E1",
"U. c #DAE0E4",
"Y. c #DBE0E4",
"T. c #E0E0E0",
"R. c #E1E1E1",
"E. c #E1E1E2",
"W. c #E1E2E2",
"Q. c #E2E2E2",
"!. c #E2E2E3",
"~. c #E2E3E3",
"^. c #E3E3E3",
"/. c #E4E4E4",
"(. c #E5E5E5",
"). c #E6E6E5",
"_. c #E6E6E6",
"`. c #E6E7E7",
"'. c #E7E7E7",
"]. c #E8E7E7",
"[. c #E8E8E8",
"{. c #E9E9E8",
"}. c #E9E9E9",
"|. c #EAEAEA",
" X c #ECEBEB",
".X c #EFEDEB",
"XX c #EBECEC",
"oX c #ECECEC",
"OX c #EDECEC",
"+X c #EDEDED",
"@X c #EEEDED",
"#X c #EEEEED",
"$X c #EEEEEE",
"%X c #EFEEEE",
"&X c #EFEFEE",
"*X c #EFEFEF",
"=X c #F0EFEE",
"-X c #F0EFEF",
";X c #F0F0EF",
":X c #F1F0EF",
">X c #F2F0EE",
",X c #F2F0EF",
"<X c #F1F0F0",
"1X c #F1F1F0",
"2X c #F2F1F0",
"3X c None",
/* pixels */
"3X3X3X3X3X3X3X3X3X3X3X3X3X3X3X3X3X3X3X3X3X3X3X3X3X3X3X3X3X3X3X3X",
"3X3X3X3X3X3X3X3X3X3X3X3X3X3X3X3X3X3X3X3X3X3X3X3X3X3X3X3X3X3X3X3X",
"3X3X3X3X3X3X3X3X3X3X3X3X3X3X3X3X3X3X3X3X3X3X3X3X3X3X3X3X3X3X3X3X",
"3X3X3X3X3X3X3X3X3X3X3X3X3X3X3X3X3X3X3X3X3X3X3X3X3X3X3X3X3X3X3X3X",
"3X3X3X3X3X3X3X3X3X3X3X3X3X3X3X3X3X3X3X3X3X3X3X3X3X3X3X3X3X3X3X3X",
"3X3X3X3X3X3X3X'.].].[.|.|.[.|.[.|.|.[.].|.[.[.].'.'.3X3X3X3X3X3X",
"3X3X3X3X3X3X~.'././././.'./././.'./././.'./././.'.~.3X3X3X3X3X3X",
"3X3X3X3X3XA.~.~./.~./.~./././././.~.~././././.~.~.T.K.3X3X3X3X3X",
"3X3X3X3X3Xx.K.~.^.~.~.~.T.y.I./.~.~.~.~.~.~.^.^.~.L.x.3X3X3X3X3X",
"3X3X3X3X3Xp.K.'.'.'./.'./.( I.]./.'.'.'.'.'.'.'.'.T.x.3X3X3X3X3X",
"3X3X3X3X3Xx.'.[.].].].].N.R ]./.F.].[.[.'.'.[.[.'.~.x.3X3X3X3X3X",
"3X3X3X3X3Xx.~.[.[. X[.OX%.#.@XB.;. X$X[.[.[.XX[.[.'.x.3X3X3X3X3X",
"3X3X3X3X3Xn.'.[.$X$X$X XY f.&X( g.$XOXOXXXXXXXXX$X[.n.3X3X3X3X3X",
"3X3X3X3X3Xn.'.$X$X$X1X,XQ ,.,XW U.,X,X,X,X1X-X$X$X[.n.3X3X3X3X3X",
"3X3X3X3X3XA.[.$X$XV.| | U C { L E { { { -.| s.$X$X[.A.3X3X3X3X3X",
"3X3X3X3X3Xn.[.$X1X$.3 q 0 0 0 w q 0 0 q z V b ] $X[.n.3X3X3X3X3X",
"3X3X3X3X3Xc.'.$X$X:.q u u u u u u u u i &.XX>.n P.}.M.3X3X3X3X3X",
"3X3X3X3X3Xx.~.[.[.v.4 5 6 6 6 6 6 6 6 7 &.=X0.j P.(.c.3X3X3X3X3X",
"3X3X3X3X3Xp.K./.'.~.m - 2 ; ; ; ; ; ; p x N a P (.L.i.3X3X3X3X3X",
"3X3X3X3X3Xw.A.K.S.S.| 2 * * = * = * 2 } +.B ' B.P.S.t.3X3X3X3X3X",
"3X3X3X3X3X1.x.n.J d d > & & & & & & , f g l q.A.C.c.6.3X3X3X3X3X",
"3X3X3X3X3X` p.x.*.h # @ + + @ @ @ @ @ O , I a.x.c.y.` 3X3X3X3X3X",
"3X3X3X3X3X/ 1.y.i.3.T M k k k k k k v K =.p.p.y.t.2./ 3X3X3X3X3X",
"3X3X3X3X3XG ^ 1.7.7.t.w.6.6.6.6.6.6.w.w.w.9.6.6.1./ H 3X3X3X3X3X",
"3X3X3X3X3X3XD ~ ) _ _ _ _ _ _ _ _ _ _ _ _ _ _ ) ~ F 3X3X3X3X3X3X",
"3X3X3X3X3X3X3X  o S S o o o o o o o o o o S S o . 3X3X3X3X3X3X3X",
"3X3X3X3X3X3X3X3X3X3X3X3X3X3X3X3X3X3X3X3X3X3X3X3X3X3X3X3X3X3X3X3X",
"3X3X3X3X3X3X3X3X3X3X3X3X3X3X3X3X3X3X3X3X3X3X3X3X3X3X3X3X3X3X3X3X",
"3X3X3X3X3X3X3X3X3X3X3X3X3X3X3X3X3X3X3X3X3X3X3X3X3X3X3X3X3X3X3X3X",
"3X3X3X3X3X3X3X3X3X3X3X3X3X3X3X3X3X3X3X3X3X3X3X3X3X3X3X3X3X3X3X3X",
"3X3X3X3X3X3X3X3X3X3X3X3X3X3X3X3X3X3X3X3X3X3X3X3X3X3X3X3X3X3X3X3X",
"3X3X3X3X3X3X3X3X3X3X3X3X3X3X3X3X3X3X3X3X3X3X3X3X3X3X3X3X3X3X3X3X"
};
