/* XPM */
static char *coffee_cup_brown_liquid[] = {
/* columns rows colors chars-per-pixel */
"32 32 99 2 ",
"   c #543F29",
".  c #56422B",
"X  c #5A452C",
"o  c #5D492C",
"O  c #594837",
"+  c #644F2E",
"@  c #655032",
"#  c #6B5533",
"$  c #63523C",
"%  c #69563B",
"&  c #6D593C",
"*  c #735C36",
"=  c #725D3B",
"-  c #766037",
";  c #79633B",
":  c #5F5042",
">  c #5F534A",
",  c #6B5A44",
"<  c #685B4E",
"1  c #655A54",
"2  c #635D5D",
"3  c #685F59",
"4  c #776146",
"5  c #7C6542",
"6  c #7C674A",
"7  c #79684D",
"8  c #726352",
"9  c #72665F",
"0  c #7D6E5C",
"q  c #656363",
"w  c #6A6464",
"e  c #6F6867",
"r  c #6D6A6A",
"t  c #716660",
"y  c #706867",
"u  c #7E6D60",
"i  c #726C6B",
"p  c #757171",
"a  c #7A7575",
"s  c #7D7979",
"d  c #816A4A",
"f  c #847161",
"g  c #8C7E72",
"h  c #827E7E",
"j  c #8E816D",
"k  c #908676",
"l  c #9E8E7C",
"z  c #868282",
"x  c #898585",
"c  c #8E8A8A",
"v  c #958B83",
"b  c #928D8D",
"n  c #9B9086",
"m  c #9F968A",
"M  c #959292",
"N  c #999493",
"B  c #9C9896",
"V  c #9E9A9A",
"C  c #AA9C8A",
"Z  c #A19D9D",
"A  c #AEA595",
"S  c #A5A19E",
"D  c #A9A39E",
"F  c #B1A698",
"G  c #B4AB9D",
"H  c #A5A0A0",
"J  c #ABA5A5",
"K  c #ADACAC",
"L  c #B2ACA1",
"P  c #B0ABAC",
"I  c #BDB0A2",
"U  c #B6B0B0",
"Y  c #BAB5B5",
"T  c #BDBCBC",
"R  c #C8BEB3",
"E  c #C3BEBE",
"W  c #CDC3B7",
"Q  c #C3C1BF",
"!  c #C3C2C2",
"~  c #C9C6C6",
"^  c #C9C8C5",
"/  c #CDCBCB",
"(  c #D2CECE",
")  c #D2D1CD",
"_  c #DBD5CD",
"`  c #D4D1D1",
"'  c #DAD6D6",
"]  c #D9D8D3",
"[  c #DDDADA",
"{  c #E1DDDD",
"}  c #E2E0DB",
"|  c #E5E2E1",
" . c #EAE5E5",
".. c #EDEBEA",
"X. c #F1ECEC",
"o. c #F4F3F3",
"O. c #F8F7F7",
"+. c #FBFAFA",
"@. c None",
/* pixels */
"@.@.@.@.@.@.@.@.@.@.@.@.@.@.@.@.@.@.@.@.@.@.@.@.@.@.@.@.@.@.@.@.",
"@.@.@.@.@.@.@.@.@.@.@.@.@.@.@.@.@.@.@.@.@.@.@.@.@.@.@.@.@.@.@.@.",
"@.@.@.@.@.@.@.@.@.@.@.@.@.@.@.@.@.@.@.@.@.@.@.@.@.@.@.@.@.@.@.@.",
"@.@.@.@.@.@.@.@.@.@.@.@.@.@.@.@.@.@.@.@.@.@.@.@.@.@.@.@.@.@.@.@.",
"@.@.@.@.@.@.@.@.@.@.@.@.@.@.@.@.@.@.@.@.@.@.@.@.@.@.@.@.@.@.@.@.",
"@.@.@.@.@.@.@.@.@.@.@.@.@.@.@.@.@.@.@.@.@.@.@.@.@.@.@.@.@.@.@.@.",
"@.@.@.@.@.@.@.@.@.@.u f q 3 f 9 2 t f @.@.@.@.@.@.@.@.@.@.@.@.@.",
"@.@.@.@.@.@.@.q e a g n H S l D H v k a e 2 @.@.@.@.@.@.@.@.@.@.",
"@.@.@.@.@.w a Z ^ [ I _ O.} I ..o.W W } Q B i w @.@.@.@.@.@.@.@.",
"@.@.@.@.w b ( } } ( C F G C l A G C L ] | | ^ z w @.@.@.@.@.@.@.",
"@.@.@.@.a ^ ~ m 0 , 4 = # * d = - 4 6 7 j L ` T y @.@.@.@.@.@.@.",
"@.@.@.@.y M 8   . o # & # * d ; ; ; ; # + @ k N r @.@.@.@.@.@.@.",
"@.@.@.@.i y > O . X o @ @ # * * - - * # # $ 1 y r w w s x r q @.",
"@.@.@.@.c E x e 1 > : $ $ % % & & , , < 2 r x E a i P ( | E r @.",
"@.@.@.@.b ..' ~ P N z a i y y y i a s c V K E { a J ~ h b ' s @.",
"@.@.@.@.c  .|  .......| { ] ( ( ( ) ` ` ~ E ! [ s ! c @.r Q z q ",
"@.@.@.@.x  . .....o.O.+.+.O.o... .| ' ` ~ ! ! [ s J r p V H w @.",
"@.@.@.@.h  . . ...o.O.+.O.O.X... .| ' ` ~ ! / ` s J J U M r @.@.",
"@.@.@.@.a {  . ...X.o.O.o.o..... .{ ' ( / ! ( / s ! J s w @.@.@.",
"@.@.@.@.i /  .|  .............| { [ ` / ! T [ Y w r q @.@.@.@.@.",
"@.@.@.@.w K ..[ { | |  . .| | { [ ` / ^ ! ! | N w @.@.@.@.@.@.@.",
"@.@.@.@.@.x  .{ ` [ [ [ [ [ ' ' ` / ^ ! T ` ' a @.@.@.@.@.@.@.@.",
"@.@.@.@.@.r K X.[ / / ` ` ( ( / ^ ! T T / ..B w @.@.@.@.@.@.@.@.",
"@.@.@.@.@.@.i K ..| ` / ~ ~ ! ! ! ! / | | H r @.@.@.@.@.@.@.@.@.",
"@.@.@.@.@.@.@.r b E [ | | | | { | | [ Y x r @.@.@.@.@.@.@.@.@.@.",
"@.@.@.@.@.@.@.@.q w a x M Z Z V M z p w 2 @.@.@.@.@.@.@.@.@.@.@.",
"@.@.@.@.@.@.@.@.@.@.2 2 2 2 2 2 2 2 2 @.@.@.@.@.@.@.@.@.@.@.@.@.",
"@.@.@.@.@.@.@.@.@.@.@.@.@.@.@.@.@.@.@.@.@.@.@.@.@.@.@.@.@.@.@.@.",
"@.@.@.@.@.@.@.@.@.@.@.@.@.@.@.@.@.@.@.@.@.@.@.@.@.@.@.@.@.@.@.@.",
"@.@.@.@.@.@.@.@.@.@.@.@.@.@.@.@.@.@.@.@.@.@.@.@.@.@.@.@.@.@.@.@.",
"@.@.@.@.@.@.@.@.@.@.@.@.@.@.@.@.@.@.@.@.@.@.@.@.@.@.@.@.@.@.@.@.",
"@.@.@.@.@.@.@.@.@.@.@.@.@.@.@.@.@.@.@.@.@.@.@.@.@.@.@.@.@.@.@.@."
};
