/* XPM */
static char *coffee_cup_yellow_on_brown[] = {
/* columns rows colors chars-per-pixel */
"32 32 247 2 ",
"   c #100907",
".  c #1F130F",
"X  c #21130E",
"o  c #221511",
"O  c #2B1812",
"+  c #2D1A13",
"@  c #291A15",
"#  c #2D1A14",
"$  c #2E1A14",
"%  c #2F1B14",
"&  c #2F1C16",
"*  c #361F18",
"=  c #381F18",
"-  c #35201A",
";  c #36201A",
":  c #382019",
">  c #3B211A",
",  c #38221B",
"<  c #39221B",
"1  c #39231B",
"2  c #3C221A",
"3  c #3C231B",
"4  c #3E221A",
"5  c #3F231A",
"6  c #3E231B",
"7  c #3F231B",
"8  c #3A231C",
"9  c #3E261E",
"0  c #40231B",
"q  c #40241B",
"w  c #40241C",
"e  c #40251C",
"r  c #41251C",
"t  c #42241C",
"y  c #42251C",
"u  c #41261D",
"i  c #42261C",
"p  c #42261D",
"a  c #43271D",
"s  c #45251C",
"d  c #46261D",
"f  c #45271E",
"g  c #44281E",
"h  c #45291F",
"j  c #46281F",
"k  c #452A1F",
"l  c #462A1F",
"z  c #49281F",
"x  c #49291F",
"c  c #472B20",
"v  c #4A2A20",
"b  c #4B2A20",
"n  c #4F2B21",
"m  c #4E2D23",
"M  c #492D24",
"N  c #4B2D25",
"B  c #4D2E24",
"V  c #522D23",
"C  c #502E23",
"Z  c #512E23",
"A  c #522E23",
"S  c #532E23",
"D  c #542E23",
"F  c #522E24",
"G  c #532E24",
"H  c #542E24",
"J  c #542F24",
"K  c #552F24",
"L  c #542F25",
"P  c #4C3024",
"I  c #4D3125",
"U  c #4D3027",
"Y  c #4F3326",
"T  c #4E3128",
"R  c #543025",
"E  c #553025",
"W  c #553125",
"Q  c #563125",
"!  c #543026",
"~  c #563126",
"^  c #573226",
"/  c #573327",
"(  c #503427",
")  c #533228",
"_  c #50322A",
"`  c #573328",
"'  c #563329",
"]  c #523628",
"[  c #51342B",
"{  c #573429",
"}  c #53362D",
"|  c #583328",
" . c #593428",
".. c #58342A",
"X. c #58352A",
"o. c #59352A",
"O. c #5A362C",
"+. c #54382F",
"@. c #5B382D",
"#. c #5D3A2C",
"$. c #5F3A2C",
"%. c #5F3B2D",
"&. c #5C382E",
"*. c #5D392F",
"=. c #583D2C",
"-. c #593E2E",
";. c #563931",
":. c #573B33",
">. c #5E3B31",
",. c #593D34",
"<. c #5A3F36",
"1. c #613D2E",
"2. c #623E2F",
"3. c #603D33",
"4. c #613F35",
"5. c #5C412F",
"6. c #5C4038",
"7. c #5F443C",
"8. c #634030",
"9. c #644131",
"0. c #664232",
"q. c #664332",
"w. c #674332",
"e. c #604532",
"r. c #664433",
"t. c #634137",
"y. c #664B37",
"u. c #6D4A37",
"i. c #644339",
"p. c #66443B",
"a. c #67463D",
"s. c #6C4B38",
"d. c #684D38",
"f. c #69483F",
"g. c #714F3B",
"h. c #6F543D",
"j. c #75533D",
"k. c #78563F",
"l. c #644C45",
"z. c #6B4A41",
"x. c #6E4E45",
"c. c #64524D",
"v. c #755A41",
"b. c #7F5D44",
"n. c #775A51",
"m. c #755A52",
"M. c #775A52",
"N. c #795C53",
"B. c #7C5F57",
"V. c #7C6146",
"C. c #7F6448",
"Z. c #70615C",
"A. c #816449",
"S. c #81674A",
"D. c #82674A",
"F. c #86664A",
"G. c #87664A",
"H. c #846A4C",
"J. c #88684C",
"K. c #957555",
"L. c #967756",
"P. c #927856",
"I. c #977D5A",
"U. c #9D7E5B",
"Y. c #9E7F5C",
"T. c #836A63",
"R. c #886E66",
"E. c #917A72",
"W. c #917A73",
"Q. c #927A73",
"!. c #927B74",
"~. c #947E78",
"^. c #9C825D",
"/. c #9D835E",
"(. c #9D845E",
"). c #9F855F",
"_. c #A0825D",
"`. c #978079",
"'. c #A48661",
"]. c #A28962",
"[. c #A68962",
"{. c #A78A63",
"}. c #A78D65",
"|. c #A98D65",
" X c #AB8F67",
".X c #AC8F67",
"XX c #AA9168",
"oX c #AE9168",
"OX c #AF9269",
"+X c #B1946A",
"@X c #B0976B",
"#X c #B2966B",
"$X c #B2986D",
"%X c #B3996E",
"&X c #B4986D",
"*X c #B5996E",
"=X c #B49B6F",
"-X c #B89C70",
";X c #B99D70",
":X c #BCA073",
">X c #BDA173",
",X c #BBA274",
"<X c #BDA475",
"1X c #C1A676",
"2X c #C4A979",
"3X c #C5AB7A",
"4X c #C6AC7A",
"5X c #C6AE7C",
"6X c #C7AE7C",
"7X c #C8AD7B",
"8X c #C8AD7C",
"9X c #C8AF7D",
"0X c #CAB17E",
"qX c #CAB27F",
"wX c #CCB480",
"eX c #CFB481",
"rX c #CFB782",
"tX c #D2B984",
"yX c #D3BA84",
"uX c #D4BC86",
"iX c #D5BD86",
"pX c #D7BD87",
"aX c #D7BF87",
"sX c #D8BF88",
"dX c #D9BF88",
"fX c #DFC68D",
"gX c #E0C78D",
"hX c #E0C78E",
"jX c #E1C88E",
"kX c #E1C98F",
"lX c #E2CA8F",
"zX c #E3CB90",
"xX c #E4CC91",
"cX c #E5CD91",
"vX c #E6CE92",
"bX c #E7CF93",
"nX c #E7D093",
"mX c #E8D093",
"MX c #E8D094",
"NX c #E9D194",
"BX c #E9D195",
"VX c #E9D295",
"CX c #EAD295",
"ZX c #EBD396",
"AX c #ECD496",
"SX c #ECD497",
"DX c None",
/* pixels */
"DXDXDXDXDXDXDXDXDXDXDXDXDXDXDXDXDXDXDXDXDXDXDXDXDXDXDXDXDXDXDXDX",
"DXDXDXDXDXDX`.Q.E.E.Q.Q.Q.Q.Q.Q.Q.Q.Q.Q.E.E.Q.Q.!.~.DXDXDXDXDXDX",
"DXDXDXDXR.x.3.&.*.*.*.&.&.&.*.*.&.&.&.@.*.*.*.*.&.3.x.T.DXDXDXDX",
"DXDXDXN.o.D K R K K K K K K D K K R K R K K D K R K D o.n.Z.DXDX",
"DXDXB. .K R R R R ^ K R R R K K R R ^ R R R ^ K R ^ R R o.m.DXDX",
"DXDX4.K R R R R K K K K R K K D K R R R R ^ R K R R R R D 4.c.DX",
"DXn. .K R ^ R ^ R ^ R R R R K 1.r.K R R R K R K R ^ R R K o.l.DX",
"DXx.R ^ R R R R R K ^ K ^ R 1.&XV.z R R ^ K R ^ R R R R R ) i.DX",
"DXz.R R ^ K K ^ K ^ K K R K K.xXh.7 n R ^ R R R ^ K K K K K <.DX",
"DXf.R R K K K R K R K K K R #XZX@XP 7 x R R R R R R ^ R ^ ^ <.DX",
"DXa.^ R ^ K K ^ ~ K K w.s.D Y.BXnXXXU e n R R R ^ R ^ K K ^ <.DX",
"DXp.^ R R K K K K K K +XP.d 3.;XnXnX^.a e b R R K K K K K R ,.DX",
"DXi.R R R ^ K K ~ K  .;XdXv.v &.}.xXqXY e e b R K K K K K ^ ;.DX",
"DXt.^ R K K ^ ~ K K K g.3XpXe.s r.fX<Xl 7 e 7 b K ^ K ^ R ^ +.DX",
"DX4.R R R K ^ J.{.[.[.'.-XxX=X^.XXjX6X(.(._.H.g b K R R R R } DX",
"DX3.R ^ ^ K ^ ;XAXBXBXBXNXbXBXCXMXnXMXBXBXAX9XU 0 b K K ^ ^ [ DX",
"DX3.~ K D ~ ~ oXNXbXbXbXbXbXbXbXMXMXMXxXbXMXjX%Xd.e b R R R [ DX",
"DX*.K K ~ ~ S K.bXbXbXbXbXbXbXbXxXMXMXMXMXMXeXdXuXd.e z R R _ DX",
"DX*.K ~ ~ D V v.gXbXbXbXbXbXbXbXbXbXMXxXMXxXG.j.fX#Xg e b R U DX",
"DXo.K ~ K ~ K 1.9XBXbXbXbXbXbXbXbXbXMXMXMXyXw.D .XtX( e e b N DX",
"DXo.K R K K ~ K U.NXbXbXbXbXbXbXbXbXxXMXBX.XR R &XtX[ e e a e DX",
"DXo.R R ~ K K K u.pXbXbXbXbXbXbXbXbXMXMXgXA. .G.fX}.a e e e 8 DX",
"DX .R R ~ K K K ~ Y.bXbXbXbXbXbXbXbXbXMXlX7X4XjX4X5.e e e e 8 DX",
"DXo.^ R K K ~ K K 2.1XZXbXbXbXbXbXbXMXqX[.,X,XI.=.7 e e e e < DX",
"DX) ^ R R R R ^ R K u.2XbXbXbXbXxXBX0Xy.7 c b e e e e e e e 1 DX",
"DX) R R R ^ R R K ^ K 9.A.S.S.S.H.C.-.e e e e e e e e a a a ; DX",
"DXN R R K ^ R ^ R R R R V 0 4 0 4 4 e e e e e e e e e e e e @ DX",
"DXDXB R K R R K ^ R R R K V a a e e e e e e e e e e e e e 8 DXDX",
"DXDX; B R K K R R R R R R R K a e e e e e e e e e e e e 9 o DXDX",
"DXDXDX& b C K K K K R R R K K V g e e e e e e e e e 7 * X DXDXDX",
"DXDXDXDXDX$ = 3 4 1 4 1 4 4 4 1 1 % % $ $ $ $ $ $ O X   DXDXDXDX",
"DXDXDXDXDXDXDXDXDXDXDXDXDXDXDXDXDXDXDXDXDXDXDXDXDXDXDXDXDXDXDXDX"
};
